<svg width="16" height="16" viewBox="0 0 16 16" fill="none" xmlns="http://www.w3.org/2000/svg">
<path d="M7.3964 10.96L8.24995 11.8136L8.24995 10.6064L8.24995 3.6252C8.24995 3.55759 8.30734 3.5002 8.37495 3.5002C8.44256 3.5002 8.49995 3.55759 8.49995 3.6252L8.49995 10.6064L8.49995 11.8136L9.3535 10.96L12.4035 7.91C12.452 7.86151 12.5292 7.86151 12.5776 7.91C12.6261 7.95849 12.6261 8.03565 12.5776 8.08414L8.4589 12.2029C8.41041 12.2514 8.33324 12.2514 8.28476 12.2029L7.93842 12.5492L8.28475 12.2029L4.166 8.08414L3.81967 8.43048L4.166 8.08414C4.11752 8.03565 4.11752 7.95849 4.166 7.91C4.21449 7.86151 4.29791 7.86151 4.3464 7.91L7.3964 10.96Z" fill="#262626" stroke="#9D6101"/>
</svg>
