<svg width="16" height="16" viewBox="0 0 16 16" fill="none" xmlns="http://www.w3.org/2000/svg">
<path d="M8.6036 5.04L7.75005 4.18645L7.75005 5.39355L7.75005 12.3748C7.75005 12.4424 7.69266 12.4998 7.62505 12.4998C7.55744 12.4998 7.50005 12.4424 7.50005 12.3748L7.50005 5.39355L7.50005 4.18645L6.6465 5.04L3.5965 8.09C3.54801 8.13849 3.47084 8.13849 3.42235 8.09C3.37386 8.04151 3.37386 7.96435 3.42235 7.91586L7.5411 3.79711C7.58959 3.74862 7.66676 3.74862 7.71524 3.79711L8.06158 3.45077L7.71525 3.79711L11.834 7.91586L12.1803 7.56952L11.834 7.91586C11.8825 7.96435 11.8825 8.04151 11.834 8.09C11.7855 8.13849 11.7021 8.13849 11.6536 8.09L8.6036 5.04Z" fill="#262626" stroke="white"/>
</svg>
