<svg width="16" height="16" viewBox="0 0 16 16" fill="none" xmlns="http://www.w3.org/2000/svg">
<path d="M5.04 8.60336L4.18645 7.7498H5.39355L12.3748 7.7498C12.4424 7.7498 12.4998 7.69241 12.4998 7.6248C12.4998 7.5572 12.4424 7.4998 12.3748 7.4998L5.39355 7.4998H4.18645L5.04 6.64625L8.09 3.59625C8.13849 3.54776 8.13849 3.4706 8.09 3.42211C8.04151 3.37362 7.96435 3.37362 7.91586 3.42211L3.79711 7.54086C3.74862 7.58935 3.74862 7.66651 3.79711 7.715L3.45077 8.06134L3.79711 7.715L7.91586 11.8338L7.56952 12.1801L7.91586 11.8338C7.96435 11.8822 8.04151 11.8822 8.09 11.8338C8.13849 11.7853 8.13849 11.7018 8.09 11.6534L5.04 8.60336Z" fill="#262626" stroke="white"/>
</svg>
