<svg width="24" height="24" viewBox="0 0 24 24" fill="none" xmlns="http://www.w3.org/2000/svg">
<path d="M20 3H19V1H17V3H7V1H5V3H4C2.9 3 2 3.9 2 5V21C2 22.1 2.9 23 4 23H20C21.1 23 22 22.1 22 21V5C22 3.9 21.1 3 20 3ZM20 5V8H4V5H20ZM4 21V10H20V21H4Z" fill="url(#paint0_linear_786_6292)"/>
<path opacity="0.3" d="M4 5.00977H20V7.99977H4V5.00977Z" fill="url(#paint1_linear_786_6292)"/>
<defs>
<linearGradient id="paint0_linear_786_6292" x1="12" y1="1" x2="12" y2="23" gradientUnits="userSpaceOnUse">
<stop stop-color="#00A8A8"/>
<stop offset="1" stop-color="#02747F"/>
</linearGradient>
<linearGradient id="paint1_linear_786_6292" x1="12" y1="5.00977" x2="12" y2="7.99977" gradientUnits="userSpaceOnUse">
<stop stop-color="#00A8A8"/>
<stop offset="1" stop-color="#02747F"/>
</linearGradient>
</defs>
</svg>
