<svg width="24" height="24" viewBox="0 0 24 24" fill="none" xmlns="http://www.w3.org/2000/svg">
<path d="M19.3049 2H4.69506C3.20665 2 2 3.2066 2 4.69506V19.305C2 20.7934 3.2066 22.0001 4.69506 22.0001H11.9006L11.9128 14.8531H10.0561C9.81477 14.8531 9.61892 14.658 9.61799 14.4167L9.60909 12.1129C9.60816 11.8703 9.80459 11.6732 10.0472 11.6732H11.9006V9.44714C11.9006 6.86388 13.4783 5.45727 15.7827 5.45727H17.6737C17.9157 5.45727 18.1118 5.65341 18.1118 5.8954V7.83793C18.1118 8.07982 17.9158 8.27592 17.674 8.27606L16.5135 8.2766C15.2603 8.2766 15.0176 8.87212 15.0176 9.74608V11.6732H17.7714C18.0338 11.6732 18.2373 11.9023 18.2064 12.1629L17.9334 14.4667C17.9072 14.6871 17.7203 14.8532 17.4983 14.8532H15.0299L15.0176 22.0001H19.305C20.7934 22.0001 22 20.7935 22 19.3051V4.69506C22 3.2066 20.7934 2 19.3049 2Z" fill="url(#paint0_linear_213_4291)"/>
<defs>
<linearGradient id="paint0_linear_213_4291" x1="12" y1="2" x2="12" y2="22.0001" gradientUnits="userSpaceOnUse">
<stop stop-color="#00A8A8"/>
<stop offset="1" stop-color="#02747F"/>
</linearGradient>
</defs>
</svg>
