<svg width="14" height="14" viewBox="0 0 14 14" fill="none" xmlns="http://www.w3.org/2000/svg">
<path d="M9.33504 8.33333H8.80838L8.62171 8.15333C9.27504 7.39333 9.66838 6.40667 9.66838 5.33333C9.66838 2.94 7.72838 1 5.33504 1C2.94171 1 1.00171 2.94 1.00171 5.33333C1.00171 7.72667 2.94171 9.66667 5.33504 9.66667C6.40838 9.66667 7.39504 9.27333 8.15504 8.62L8.33504 8.80667V9.33333L11.6684 12.66L12.6617 11.6667L9.33504 8.33333ZM5.33504 8.33333C3.67504 8.33333 2.33504 6.99333 2.33504 5.33333C2.33504 3.67333 3.67504 2.33333 5.33504 2.33333C6.99504 2.33333 8.33504 3.67333 8.33504 5.33333C8.33504 6.99333 6.99504 8.33333 5.33504 8.33333Z" fill="black" fill-opacity="0.45"/>
</svg>
