<svg width="24" height="24" viewBox="0 0 24 24" fill="none" xmlns="http://www.w3.org/2000/svg">
<path d="M8.0619 21.9834C6.87132 21.9834 5.67639 22.0247 4.48581 21.9789C3.07719 21.9193 2 20.6771 2 19.1966C2 14.416 2.00872 9.63539 2 4.85018C2 3.21386 3.21674 2.07256 4.61665 2.03131C6.08197 1.99006 7.55165 2.02214 9.02134 2.02214C9.0475 2.02214 9.08239 2.00839 9.09547 2.05423C9.08675 2.13673 9.00825 2.1459 8.96028 2.17798C8.09679 2.70967 7.30743 3.34678 6.64455 4.13515C5.54992 5.43688 4.79109 6.93111 4.53379 8.66827C4.08023 11.7347 4.9917 14.3381 7.05449 16.5107C7.42082 16.9003 7.46879 17.2028 7.1766 17.7253C6.82335 18.3533 6.28694 18.7795 5.71564 19.1691C5.65458 19.2058 5.59353 19.2517 5.53247 19.2929C5.44089 19.3754 5.49758 19.4167 5.57608 19.4533C5.59353 19.4946 5.61533 19.5312 5.6415 19.5679C6.14302 20.0354 6.61838 20.535 7.11118 21.0117C7.34232 21.2363 7.57346 21.4701 7.79587 21.7038C7.88745 21.7909 8.04009 21.8184 8.0619 21.9834Z" fill="url(#paint0_linear_213_4293)"/>
<path d="M8.06205 21.982C8.04024 21.8215 7.88761 21.794 7.79602 21.6978C7.57361 21.4594 7.34247 21.2303 7.11133 21.0057C6.61853 20.529 6.14317 20.0294 5.64165 19.5618C5.61548 19.5252 5.59368 19.4885 5.57623 19.4473C6.68831 19.6764 7.77422 19.5206 8.84268 19.1768C9.20465 19.0622 9.56662 18.9477 9.93295 18.8514C10.1815 18.7826 10.4432 18.7964 10.6831 18.8881C13.448 19.8873 16.178 19.7956 18.8644 18.5581C19.9591 18.0493 20.9578 17.3342 21.8038 16.4405C21.8474 16.3946 21.878 16.3259 21.9565 16.3213C21.9957 16.3855 21.9739 16.4542 21.9739 16.523V19.2043C21.9826 20.7352 20.8139 21.982 19.3572 21.9957H19.3354C17.7655 22.0049 16.1955 21.9957 14.6255 21.9957H8.32371C8.23649 21.9865 8.14927 21.982 8.06205 21.982Z" fill="url(#paint1_linear_213_4293)"/>
<path d="M8.74306 11.7253C9.40158 11.7253 10.0209 11.7207 10.6358 11.7253C10.9803 11.7299 11.1678 11.8812 11.2027 12.1699C11.242 12.532 11.0413 12.775 10.6663 12.7795C9.9598 12.7887 9.25766 12.7841 8.55117 12.7841C8.3462 12.7841 8.14559 12.7933 7.94062 12.7795C7.68767 12.7658 7.43909 12.7108 7.31698 12.4358C7.19487 12.1608 7.28209 11.9133 7.44781 11.6887C8.11942 10.7903 8.79539 9.88733 9.47136 8.98896C9.51061 8.93396 9.54985 8.87896 9.5891 8.82854C9.54549 8.75062 9.48444 8.78728 9.43211 8.7827C8.96111 8.77812 8.48575 8.7827 8.01475 8.77812C7.90573 8.77812 7.7967 8.76437 7.69204 8.74145C7.44345 8.68186 7.29082 8.4206 7.34751 8.16392C7.38676 7.98975 7.51759 7.84766 7.68331 7.80641C7.78798 7.77891 7.89701 7.76516 8.00603 7.76516C8.78231 7.76057 9.56294 7.76057 10.3392 7.76516C10.4788 7.76057 10.614 7.77891 10.7492 7.81558C11.0457 7.921 11.1722 8.20976 11.0544 8.51227C10.9498 8.77353 10.784 8.99813 10.6183 9.22272C10.047 9.98817 9.47572 10.749 8.90442 11.5053C8.85644 11.5649 8.81283 11.6245 8.74306 11.7253Z" fill="url(#paint2_linear_213_4293)"/>
<path d="M13.8014 9.31398C13.9061 9.17189 14.0151 9.03897 14.1939 9.0023C14.5385 8.92897 14.8612 9.16273 14.8655 9.52941C14.8786 10.4461 14.8743 11.3628 14.8655 12.2795C14.8655 12.5179 14.7173 12.7287 14.5036 12.7975C14.2855 12.8846 14.0369 12.8158 13.893 12.6187C13.8189 12.5225 13.7883 12.5041 13.6837 12.5912C13.2868 12.9304 12.8376 12.99 12.3536 12.825C11.5773 12.5591 11.2589 11.922 11.1717 11.1474C11.0801 10.3086 11.3461 9.59358 12.0614 9.15356C12.6545 8.78229 13.2563 8.81438 13.8014 9.31398ZM12.2576 10.987C12.2663 11.1886 12.3274 11.3812 12.4408 11.5416C12.6763 11.8716 13.1255 11.9403 13.4438 11.6928C13.4962 11.6516 13.5441 11.6012 13.5877 11.5416C13.832 11.1932 13.832 10.6203 13.5877 10.2719C13.4656 10.0932 13.2737 9.98776 13.0688 9.98318C12.5891 9.95109 12.2532 10.3407 12.2576 10.987ZM16.8237 11.0145C16.7888 9.83651 17.5258 8.95647 18.5725 8.92438C19.6845 8.88771 20.4957 9.6715 20.5306 10.8174C20.5655 11.977 19.8895 12.7975 18.8472 12.9075C17.709 13.0266 16.8062 12.1604 16.8237 11.0145ZM17.9183 10.9045C17.9096 11.1336 17.975 11.3582 18.1058 11.5462C18.3457 11.8762 18.7949 11.9403 19.1089 11.6837C19.1568 11.647 19.1961 11.6012 19.2353 11.5553C19.4883 11.207 19.4883 10.6203 19.2397 10.2719C19.1176 10.0978 18.9257 9.98776 18.7207 9.98318C18.2497 9.95568 17.9183 10.3315 17.9183 10.9045ZM16.4399 10.1024C16.4399 10.8128 16.4442 11.5232 16.4399 12.2337C16.4442 12.5591 16.2 12.8296 15.8904 12.8387C15.8381 12.8387 15.7814 12.8341 15.729 12.8204C15.511 12.7608 15.3453 12.5179 15.3453 12.2291V8.5852C15.3453 8.36977 15.3409 8.15893 15.3453 7.9435C15.3496 7.59057 15.5633 7.3614 15.886 7.3614C16.2175 7.35681 16.4399 7.58599 16.4399 7.95267C16.4442 8.6677 16.4399 9.38732 16.4399 10.1024Z" fill="url(#paint3_linear_213_4293)"/>
<path d="M4.85619 2.28418H19.1649C20.5809 2.28418 21.7496 3.49419 21.7496 5.01348V18.9016C21.7496 20.4209 20.5809 21.6309 19.1649 21.6309H4.85619C3.4402 21.6309 2.27148 20.4209 2.27148 18.9016V5.01348C2.27148 3.49419 3.4402 2.28418 4.85619 2.28418Z" stroke="url(#paint4_linear_213_4293)" stroke-width="0.5" stroke-miterlimit="10"/>
<defs>
<linearGradient id="paint0_linear_213_4293" x1="5.54774" y1="2.01025" x2="5.54774" y2="22.0005" gradientUnits="userSpaceOnUse">
<stop stop-color="#00A8A8"/>
<stop offset="1" stop-color="#02747F"/>
</linearGradient>
<linearGradient id="paint1_linear_213_4293" x1="13.7781" y1="16.3213" x2="13.7781" y2="21.9998" gradientUnits="userSpaceOnUse">
<stop stop-color="#00A8A8"/>
<stop offset="1" stop-color="#02747F"/>
</linearGradient>
<linearGradient id="paint2_linear_213_4293" x1="9.23366" y1="7.76172" x2="9.23366" y2="12.7871" gradientUnits="userSpaceOnUse">
<stop stop-color="#00A8A8"/>
<stop offset="1" stop-color="#02747F"/>
</linearGradient>
<linearGradient id="paint3_linear_213_4293" x1="15.8431" y1="7.36133" x2="15.8431" y2="12.9184" gradientUnits="userSpaceOnUse">
<stop stop-color="#00A8A8"/>
<stop offset="1" stop-color="#02747F"/>
</linearGradient>
<linearGradient id="paint4_linear_213_4293" x1="12.0105" y1="2.03418" x2="12.0105" y2="21.8809" gradientUnits="userSpaceOnUse">
<stop stop-color="#00A8A8"/>
<stop offset="1" stop-color="#02747F"/>
</linearGradient>
</defs>
</svg>
