<svg width="33" height="33" viewBox="0 0 33 33" fill="none" xmlns="http://www.w3.org/2000/svg">
<rect x="2.5" y="2.11719" width="28" height="28" rx="6" fill="url(#paint0_radial_1970_9767)"/>
<rect x="2.5" y="2.11719" width="28" height="28" rx="6" fill="url(#paint1_radial_1970_9767)"/>
<rect x="2.5" y="2.11719" width="28" height="28" rx="6" fill="#005C8F"/>
<path d="M23.5 10.6172C23.5 11.4456 22.8284 12.1172 22 12.1172C21.1716 12.1172 20.5 11.4456 20.5 10.6172C20.5 9.78876 21.1716 9.11719 22 9.11719C22.8284 9.11719 23.5 9.78876 23.5 10.6172Z" fill="#F5EBDF"/>
<path fill-rule="evenodd" clip-rule="evenodd" d="M16.5 21.1172C19.2614 21.1172 21.5 18.8786 21.5 16.1172C21.5 13.3558 19.2614 11.1172 16.5 11.1172C13.7386 11.1172 11.5 13.3558 11.5 16.1172C11.5 18.8786 13.7386 21.1172 16.5 21.1172ZM16.5 19.1172C18.1569 19.1172 19.5 17.774 19.5 16.1172C19.5 14.4603 18.1569 13.1172 16.5 13.1172C14.8431 13.1172 13.5 14.4603 13.5 16.1172C13.5 17.774 14.8431 19.1172 16.5 19.1172Z" fill="#F5EBDF"/>
<path fill-rule="evenodd" clip-rule="evenodd" d="M6.5 15.7172C6.5 12.3569 6.5 10.6767 7.15396 9.39324C7.7292 8.26427 8.64708 7.34639 9.77606 6.77115C11.0595 6.11719 12.7397 6.11719 16.1 6.11719H16.9C20.2603 6.11719 21.9405 6.11719 23.2239 6.77115C24.3529 7.34639 25.2708 8.26427 25.846 9.39324C26.5 10.6767 26.5 12.3569 26.5 15.7172V16.5172C26.5 19.8775 26.5 21.5577 25.846 22.8411C25.2708 23.9701 24.3529 24.888 23.2239 25.4632C21.9405 26.1172 20.2603 26.1172 16.9 26.1172H16.1C12.7397 26.1172 11.0595 26.1172 9.77606 25.4632C8.64708 24.888 7.7292 23.9701 7.15396 22.8411C6.5 21.5577 6.5 19.8775 6.5 16.5172V15.7172ZM16.1 8.11719H16.9C18.6132 8.11719 19.7777 8.11874 20.6779 8.19229C21.5548 8.26393 22.0032 8.39378 22.316 8.55316C23.0686 8.93665 23.6805 9.54858 24.064 10.3012C24.2234 10.614 24.3533 11.0624 24.4249 11.9393C24.4984 12.8394 24.5 14.004 24.5 15.7172V16.5172C24.5 18.2303 24.4984 19.3949 24.4249 20.2951C24.3533 21.1719 24.2234 21.6203 24.064 21.9331C23.6805 22.6858 23.0686 23.2977 22.316 23.6812C22.0032 23.8406 21.5548 23.9704 20.6779 24.0421C19.7777 24.1156 18.6132 24.1172 16.9 24.1172H16.1C14.3868 24.1172 13.2223 24.1156 12.3221 24.0421C11.4452 23.9704 10.9968 23.8406 10.684 23.6812C9.93139 23.2977 9.31947 22.6858 8.93597 21.9331C8.77659 21.6203 8.64674 21.1719 8.5751 20.2951C8.50156 19.3949 8.5 18.2303 8.5 16.5172V15.7172C8.5 14.004 8.50156 12.8394 8.5751 11.9393C8.64674 11.0624 8.77659 10.614 8.93597 10.3012C9.31947 9.54858 9.93139 8.93665 10.684 8.55316C10.9968 8.39378 11.4452 8.26393 12.3221 8.19229C13.2223 8.11874 14.3868 8.11719 16.1 8.11719Z" fill="#F5EBDF"/>
<defs>
<radialGradient id="paint0_radial_1970_9767" cx="0" cy="0" r="1" gradientUnits="userSpaceOnUse" gradientTransform="translate(12.5 23.1172) rotate(-55.3758) scale(25.5196)">
<stop stop-color="#B13589"/>
<stop offset="0.79309" stop-color="#C62F94"/>
<stop offset="1" stop-color="#8A3AC8"/>
</radialGradient>
<radialGradient id="paint1_radial_1970_9767" cx="0" cy="0" r="1" gradientUnits="userSpaceOnUse" gradientTransform="translate(11.5 31.1172) rotate(-65.1363) scale(22.5942)">
<stop stop-color="#E0E8B7"/>
<stop offset="0.444662" stop-color="#FB8A2E"/>
<stop offset="0.71474" stop-color="#E2425C"/>
<stop offset="1" stop-color="#E2425C" stop-opacity="0"/>
</radialGradient>
</defs>
</svg>
