<svg width="32" height="32" viewBox="0 0 32 32" fill="none" xmlns="http://www.w3.org/2000/svg">
<path d="M21.2806 9.13333C21.2806 9.13333 21.8661 9.68889 21.2806 9.13333C20.4959 8.26625 20.0634 7.1527 20.0638 6H16.5166V19.7778C16.4892 20.5234 16.164 21.2296 15.6094 21.7477C15.0548 22.2658 14.3142 22.5555 13.5434 22.5556C11.9133 22.5556 10.5587 21.2667 10.5587 19.6667C10.5587 17.7556 12.4643 16.3222 14.4273 16.9111V13.4C10.4668 12.8889 7 15.8667 7 19.6667C7 23.3667 10.1684 26 13.5319 26C17.1365 26 20.0638 23.1667 20.0638 19.6667V12.6778C21.5022 13.6776 23.2291 14.2141 25 14.2111V10.7778C25 10.7778 22.8418 10.8778 21.2806 9.13333Z" fill="#005C8F"/>
</svg>
