<svg width="33" height="33" viewBox="0 0 33 33" fill="none" xmlns="http://www.w3.org/2000/svg">
<path d="M12.2887 28.1172C9.05374 28.1172 6.03817 27.1763 3.5 25.5528C5.65499 25.6922 9.45807 25.3583 11.8236 23.102C8.26508 22.9387 6.66026 20.2095 6.45094 19.0432C6.75329 19.1598 8.1953 19.2997 9.00934 18.9732C4.9159 17.9468 4.28793 14.3545 4.42748 13.2582C5.195 13.7947 6.49745 13.9813 7.00913 13.9346C3.19479 11.2054 4.56703 7.09995 5.24151 6.21354C7.97882 10.0059 12.0812 12.1358 17.1564 12.2542C17.0607 11.8345 17.0102 11.3976 17.0102 10.9488C17.0102 7.7281 19.6134 5.11719 22.8247 5.11719C24.5025 5.11719 26.0144 5.82994 27.0757 6.97003C28.1969 6.70729 29.8843 6.09226 30.7092 5.56039C30.2934 7.05329 28.9989 8.29868 28.2159 8.76026C28.2224 8.77597 28.2095 8.74449 28.2159 8.76026C28.9037 8.65622 30.7648 8.29856 31.5 7.79974C31.1364 8.63844 29.764 10.0329 28.6377 10.8136C28.8473 20.0552 21.7765 28.1172 12.2887 28.1172Z" fill="#005C8F"/>
</svg>
