<svg width="32" height="32" viewBox="0 0 32 32" fill="none" xmlns="http://www.w3.org/2000/svg">
<path d="M18.3594 22.3594V19.9062C18.3594 19.3854 18.2083 19.125 17.9062 19.125C17.7292 19.125 17.5573 19.2083 17.3906 19.375V22.875C17.5573 23.0417 17.7292 23.125 17.9062 23.125C18.2083 23.125 18.3594 22.8698 18.3594 22.3594ZM21.2344 20.4531H22.2656V19.9219C22.2656 19.3906 22.0938 19.125 21.75 19.125C21.4062 19.125 21.2344 19.3906 21.2344 19.9219V20.4531ZM12.3125 16.2969V17.3906H11.0625V24H9.90625V17.3906H8.6875V16.2969H12.3125ZM15.4531 18.2656V24H14.4062V23.375C14 23.8438 13.6042 24.0781 13.2188 24.0781C12.875 24.0781 12.6562 23.9323 12.5625 23.6406C12.5 23.4635 12.4688 23.1823 12.4688 22.7969V18.2656H13.5V22.4844C13.5 22.7344 13.5052 22.8698 13.5156 22.8906C13.526 23.0469 13.6042 23.125 13.75 23.125C13.9583 23.125 14.1771 22.9635 14.4062 22.6406V18.2656H15.4531ZM19.3906 20V22.2812C19.3906 22.8229 19.3542 23.2031 19.2812 23.4219C19.1562 23.8594 18.8802 24.0781 18.4531 24.0781C18.0885 24.0781 17.7344 23.8646 17.3906 23.4375V24H16.3438V16.2969H17.3906V18.8125C17.724 18.3958 18.0781 18.1875 18.4531 18.1875C18.8802 18.1875 19.1562 18.4062 19.2812 18.8438C19.3542 19.0625 19.3906 19.4479 19.3906 20ZM23.3125 22.0156V22.1562C23.3125 22.4583 23.3021 22.6823 23.2812 22.8281C23.25 23.0573 23.1719 23.2656 23.0469 23.4531C22.7656 23.8698 22.349 24.0781 21.7969 24.0781C21.2552 24.0781 20.8333 23.8802 20.5312 23.4844C20.3125 23.2031 20.2031 22.7552 20.2031 22.1406V20.125C20.2031 19.5104 20.3073 19.0625 20.5156 18.7812C20.8177 18.3854 21.2344 18.1875 21.7656 18.1875C22.2969 18.1875 22.7031 18.3854 22.9844 18.7812C23.2031 19.0833 23.3125 19.5312 23.3125 20.125V21.3125H21.2344V22.3281C21.2344 22.8594 21.4115 23.125 21.7656 23.125C22.0156 23.125 22.1719 22.9896 22.2344 22.7188C22.2344 22.7083 22.237 22.6719 22.2422 22.6094C22.2474 22.5469 22.25 22.4609 22.25 22.3516V22.0156H23.3125ZM16.2656 9.14062V11.5781C16.2656 12.1094 16.099 12.375 15.7656 12.375C15.4323 12.375 15.2656 12.1094 15.2656 11.5781V9.14062C15.2656 8.59896 15.4323 8.32812 15.7656 8.32812C16.099 8.32812 16.2656 8.59896 16.2656 9.14062ZM24.5938 20.2812C24.5938 18.4375 24.4948 17.0833 24.2969 16.2188C24.1927 15.7604 23.9688 15.3776 23.625 15.0703C23.2812 14.763 22.8854 14.5833 22.4375 14.5312C21.0208 14.375 18.875 14.2969 16 14.2969C13.1354 14.2969 10.9948 14.375 9.57812 14.5312C9.11979 14.5833 8.72135 14.763 8.38281 15.0703C8.04427 15.3776 7.82292 15.7604 7.71875 16.2188C7.51042 17.125 7.40625 18.4792 7.40625 20.2812C7.40625 22.1146 7.51042 23.4688 7.71875 24.3438C7.82292 24.7917 8.04427 25.1719 8.38281 25.4844C8.72135 25.7969 9.11458 25.9792 9.5625 26.0312C10.9896 26.1875 13.1354 26.2656 16 26.2656C18.8646 26.2656 21.0104 26.1875 22.4375 26.0312C22.8854 25.9792 23.2786 25.7969 23.6172 25.4844C23.9557 25.1719 24.1771 24.7917 24.2812 24.3438C24.4896 23.4688 24.5938 22.1146 24.5938 20.2812ZM12.7969 10.1094L14.2031 5.48438H13.0312L12.2344 8.53125L11.4062 5.48438H10.1875C10.2604 5.72396 10.3802 6.08333 10.5469 6.5625L10.9219 7.64062C11.2865 8.71354 11.526 9.53646 11.6406 10.1094V13.25H12.7969V10.1094ZM17.3125 11.375V9.34375C17.3125 8.73958 17.2031 8.28646 16.9844 7.98438C16.6823 7.58854 16.276 7.39062 15.7656 7.39062C15.2344 7.39062 14.8281 7.58854 14.5469 7.98438C14.3281 8.28646 14.2188 8.73958 14.2188 9.34375V11.375C14.2188 11.9792 14.3281 12.4323 14.5469 12.7344C14.8281 13.1302 15.2344 13.3281 15.7656 13.3281C16.276 13.3281 16.6823 13.1302 16.9844 12.7344C17.2031 12.4531 17.3125 12 17.3125 11.375ZM20.1406 13.25H21.1875V7.46875H20.1406V11.8906C19.9115 12.2135 19.6927 12.375 19.4844 12.375C19.3281 12.375 19.2448 12.2917 19.2344 12.125C19.224 12.1042 19.2188 11.9688 19.2188 11.7188V7.46875H18.1719V12.0469C18.1719 12.4323 18.2031 12.7188 18.2656 12.9062C18.3802 13.1875 18.6042 13.3281 18.9375 13.3281C19.3125 13.3281 19.7135 13.0938 20.1406 12.625V13.25ZM28 8.5V23.5C28 24.7396 27.5599 25.7995 26.6797 26.6797C25.7995 27.5599 24.7396 28 23.5 28H8.5C7.26042 28 6.20052 27.5599 5.32031 26.6797C4.4401 25.7995 4 24.7396 4 23.5V8.5C4 7.26042 4.4401 6.20052 5.32031 5.32031C6.20052 4.4401 7.26042 4 8.5 4H23.5C24.7396 4 25.7995 4.4401 26.6797 5.32031C27.5599 6.20052 28 7.26042 28 8.5Z" fill="#005C8F"/>
</svg>
