<svg width="32" height="32" viewBox="0 0 32 32" fill="none" xmlns="http://www.w3.org/2000/svg">
<path d="M16.6533 13.6961V13.0961H18.4493V21.5254H17.4227C17.2194 21.5257 17.0244 21.4455 16.8802 21.3023C16.736 21.1591 16.6544 20.9646 16.6533 20.7614V20.7627C15.9037 21.3115 14.9984 21.6067 14.0693 21.6054C12.9085 21.6054 11.7952 21.1444 10.9741 20.3238C10.153 19.5033 9.69137 18.3902 9.69067 17.2294C9.69137 16.0686 10.153 14.9555 10.9741 14.1349C11.7952 13.3143 12.9085 12.8534 14.0693 12.8534C14.998 12.8523 15.9027 13.1475 16.652 13.6961H16.6533ZM9.22533 10.3867V10.6601C9.22533 11.1694 9.15733 11.5854 8.82533 12.0734L8.78533 12.1187C8.67472 12.2428 8.56714 12.3695 8.46267 12.4987L2.69867 19.7334H9.22533V20.7574C9.22533 20.8584 9.20542 20.9583 9.16675 21.0516C9.12807 21.1449 9.07138 21.2296 8.99992 21.3009C8.92846 21.3722 8.84364 21.4288 8.75031 21.4673C8.65698 21.5058 8.55697 21.5256 8.456 21.5254H0V21.0427C0 20.4521 0.146667 20.1881 0.333333 19.9134L6.476 12.3067H0.256V10.3867H9.22667H9.22533ZM20.6267 21.5254C20.4569 21.5254 20.2941 21.458 20.1741 21.3379C20.0541 21.2179 19.9867 21.0551 19.9867 20.8854V10.3867H21.908V21.5254H20.6267ZM27.5907 12.8001C28.1695 12.7999 28.7428 12.9137 29.2776 13.1351C29.8125 13.3564 30.2985 13.681 30.708 14.0902C31.1174 14.4994 31.4423 14.9852 31.664 15.52C31.8856 16.0547 31.9998 16.6279 32 17.2067C32.0002 17.7856 31.8863 18.3588 31.665 18.8937C31.4436 19.4286 31.1191 19.9146 30.7099 20.324C30.3007 20.7335 29.8148 21.0583 29.2801 21.28C28.7454 21.5017 28.1722 21.6159 27.5933 21.6161C26.4243 21.6164 25.3029 21.1523 24.476 20.3259C23.6491 19.4995 23.1844 18.3785 23.184 17.2094C23.1836 16.0403 23.6477 14.919 24.4741 14.0921C25.3005 13.2652 26.4216 12.8004 27.5907 12.8001ZM14.0707 19.8041C14.4138 19.8119 14.755 19.751 15.0743 19.6251C15.3936 19.4992 15.6845 19.3107 15.9299 19.0708C16.1754 18.8309 16.3704 18.5444 16.5035 18.228C16.6367 17.9117 16.7053 17.5719 16.7053 17.2287C16.7053 16.8855 16.6367 16.5457 16.5035 16.2294C16.3704 15.9131 16.1754 15.6265 15.9299 15.3866C15.6845 15.1467 15.3936 14.9582 15.0743 14.8323C14.755 14.7064 14.4138 14.6456 14.0707 14.6534C13.3978 14.6687 12.7576 14.9467 12.2872 15.428C11.8167 15.9093 11.5533 16.5557 11.5533 17.2287C11.5533 17.9018 11.8167 18.5481 12.2872 19.0294C12.7576 19.5107 13.3978 19.7887 14.0707 19.8041ZM27.5907 19.8001C28.2785 19.8001 28.9381 19.5268 29.4244 19.0405C29.9108 18.5541 30.184 17.8945 30.184 17.2067C30.184 16.5189 29.9108 15.8593 29.4244 15.373C28.9381 14.8866 28.2785 14.6134 27.5907 14.6134C26.9029 14.6134 26.2432 14.8866 25.7569 15.373C25.2706 15.8593 24.9973 16.5189 24.9973 17.2067C24.9973 17.8945 25.2706 18.5541 25.7569 19.0405C26.2432 19.5268 26.9029 19.8001 27.5907 19.8001Z" fill="#005C8F"/>
</svg>
