<svg id="Layer_1" data-name="Layer 1" xmlns="http://www.w3.org/2000/svg" viewBox="0 0 200 200"><defs><style>.cls-1,.cls-2,.cls-3,.cls-4{fill:#f05b28;}.cls-2{opacity:0.6;}.cls-3{opacity:0.7;}.cls-4{opacity:0.9;}</style></defs><title>3fc-logo</title><g transform="translate(32.335,5.53)"><polygon class="cls-2" points="87.97 92.64 80.32 103.08 94.09 121.88 109.87 104.89 87.97 92.64"/><polygon class="cls-3" points="115.78 49.38 77.71 64.2 79.03 87.63 79.03 87.63 79.72 100.66 97.33 76.6 115.78 49.38"/><polygon class="cls-4" points="111.47 106.04 88.07 131.29 96.24 129.74 109.21 166.14 135.33 141.71 111.47 106.04"/><polygon class="cls-1" points="95.27 131.91 71.68 136.23 71.72 136.45 16.82 146.51 56.36 188.94 107.71 167.35 95.27 131.91"/><polygon class="cls-1" points="117.03 46.84 94.04 0 0 24.05 75.21 63.12 117.03 46.84"/><polygon class="cls-2" points="29.67 142.45 20.55 127.01 17.05 144.85 29.67 142.45"/></g></svg>