<svg width="16" height="16" viewBox="0 0 16 16" fill="none" xmlns="http://www.w3.org/2000/svg">
<path d="M10 8H11.3333C11.3333 7.11595 10.9821 6.2681 10.357 5.64298C9.7319 5.01786 8.88406 4.66667 8 4.66667V6C8.53043 6 9.03914 6.21071 9.41421 6.58579C9.78929 6.96086 10 7.46957 10 8ZM12.6667 8H14C14 4.66667 11.3133 2 8 2V3.33333C10.5733 3.33333 12.6667 5.42 12.6667 8ZM13.3333 10.3333C12.5 10.3333 11.7 10.2 10.9533 9.95333C10.72 9.88 10.46 9.93333 10.2733 10.12L8.80667 11.5867C6.91554 10.6222 5.3778 9.08446 4.41333 7.19333L5.88 5.72667C6.06667 5.54 6.12 5.28 6.04667 5.04667C5.79377 4.2787 5.66548 3.4752 5.66667 2.66667C5.66667 2.48986 5.59643 2.32029 5.4714 2.19526C5.34638 2.07024 5.17681 2 5 2H2.66667C2.48986 2 2.32029 2.07024 2.19526 2.19526C2.07024 2.32029 2 2.48986 2 2.66667C2 5.67245 3.19404 8.55513 5.31946 10.6805C7.44487 12.806 10.3275 14 13.3333 14C13.5101 14 13.6797 13.9298 13.8047 13.8047C13.9298 13.6797 14 13.5101 14 13.3333V11C14 10.8232 13.9298 10.6536 13.8047 10.5286C13.6797 10.4036 13.5101 10.3333 13.3333 10.3333Z" fill="#FBF7F3"/>
</svg>
